<?xml version="1.0" encoding="UTF-8"?>
<svg version="1.1" viewBox="0 0 1920 1920" width="1280" height="1280" xmlns="http://www.w3.org/2000/svg">
<path transform="translate(0)" d="m0 0h1920v1920h-1920z"/>
<path transform="translate(606,613)" d="m0 0 12 1 37 6 42 8 46 10 32 8 40 11 34 9 41 12 41 14 19 7 21 8 27 11 1 1v9l-13 132-14 135-8 78-2 29-3 23-2 31-2 12-9 1-46 3-56 6-46 7-42 8-28 7-18 6-16 7-19 10-7 5-1-1-6-58-14-137-13-126-13-129-15-154z" fill="#E3A03A"/>
<path transform="translate(1271,666)" d="m0 0h60l49 1 18 2 13 1h11l1 2-12 42-15 48-14 44-21 74-15 49-22 70-15 52-8 28-13 43-16 51-14 45-5 17-5-1-22-13-24-14-23-12-33-15-38-16-40-15-32-10-47-12-3-2 1-15 7-62 2-20 1-25 14-134 9-83 5-51 2-6 9 3 18 8 13 6v-2l-4-2-14-11-16-12-5-3-1-5 1-15 2-3 29-6 54-9 35-4 43-4 52-3z" fill="#249CCD"/>
<path transform="translate(969,1469)" d="m0 0h62l11 4 8 7 4 8 1 10-4 11-6 7-5 3 4 2 9 6 5 5 4 10v12l-4 10-9 10-8 5-16 4h-57v-113z" fill="#FCFEFD"/>
<path transform="translate(817,1466)" d="m0 0h20l14 4 7 5 5 8 1 5v9l-3 8-8 9-9 5-3 1 1 3 10 8 8 7 1-22h27l1 1v15l-4 14-6 9 2 4 11 9 12 12v3h-34l-7-8-6 1-14 7-13 3h-10l-16-4-9-6-7-8-4-9v-17l3-8 5-8 9-6-2-4-7-8-4-11v-7l4-10 5-5 8-5 8-3z" fill="#FCFEFD"/>
<path transform="translate(1308,1496)" d="m0 0h22l6 3h5l1-1 23-1 1 1v89l-4 10-6 8-8 5-8 3-15 2h-11l-22-2-3-2v-22l5 1 15 4 4 1h8l11-3 5-6 4-12-12 6-9 2h-8l-12-3-6-4-5-4-5-8-3-10v-28l4-11 7-9 9-6z" fill="#FBFDFD"/>
<path transform="translate(712,314)" d="m0 0h27v119h-26l-2-7-7 4-6 4-3 1h-19l-8-5-7-7-6-13-2-7-1-8v-9l4-16 5-9 9-10 12-6h17l13 5z" fill="#FCFEFD"/>
<path transform="translate(633,1463)" d="m0 0h25l1 1v119h-26l-1-7-7 4-8 4-7 2h-8l-12-5-7-7-5-8-4-13-1-6v-13l3-13 6-11 7-7 14-7h18l12 4-1-10v-25z" fill="#FBFDFD"/>
<path transform="translate(1581,871)" d="m0 0h13l14 3 14 7 7 6 6 9 4 12v11l-5 15-5 8-2 17-3 11-5 1-25-8-32-9-34-9-14-4 1-5 5-21 4-1 28 8 8 3-4-12v-16l5-13 6-7 10-5z" fill="#FBFDFD"/>
<path transform="translate(299,1469)" d="m0 0h27l1 1v33l-1 7h40l1-41h29v114h-28l-1-1v-49h-41v50h-27l-1-1v-112z" fill="#FAFDFC"/>
<path transform="translate(558,318)" d="m0 0h79l1 1v22l-1 1h-51v19h47l1 1v21h-48v28h51l1 2v20l-78 1-2-1-1-5v-109z" fill="#FAFDFD"/>
<path transform="translate(919,344)" d="m0 0 15 1 11 4 8 6 6 7 5 11 2 7v21l-4 12-6 9-9 8-9 4-16 2-15-1-10-4-9-7-6-8-4-8-2-9v-17l3-12 6-10 10-9 10-5z" fill="#FBFDFC"/>
<path transform="translate(216,496)" d="m0 0h10l10 2 11 7 7 9 5 11 3 14v15l-4 13-6 9-8 7-11 5-11 2h-14l-8-2-9-6-6-7-6-12-3-10v-25l4-11 6-9 8-6 9-4z" fill="#FCFDFC"/>
<path transform="translate(1506,1169)" d="m0 0h20l12 4 10 6 7 8 5 11 2 7v13l-3 14-5 12-6 8-7 6-14 5h-13l-14-4-11-6-7-7-6-12-2-8v-14l4-15 6-11 6-7 9-7z" fill="#FBFDFD"/>
<path transform="translate(1440,1253)" d="m0 0 4 2 14 10 17 12 21 16 13 10 19 14 6 4 1 3-3 3-2 12-2 5-2 9-2 1-89 8-24 1 4-17 2-12 32-3 49-3-10-8-24-16-16-12-14-10-1-1 1-8z" fill="#FBFDFD"/>
<path transform="translate(1130,345)" d="m0 0h29l11 3 8 5 7 8 1 3v69l-26 1-2-2 3-7-15 9-4 1h-19l-10-5-6-7-3-7v-15l4-10 7-6 8-4 11-3 26-2-3-6-5-4-8-2-15 1-14 5h-4v-21l7-2z" fill="#FCFEFD"/>
<path transform="translate(1417,1495)" d="m0 0h18l11 2 10 4 5 4 5 8 1 3v66l-1 1h-24l-1-1v-7l-6 3-8 5-12 3-10-1-9-4-5-5-4-6-2-7v-11l3-9 8-8 14-6 29-3h2l-3-7-6-4-4-1h-14l-15 4-7 2-1-1v-18l5-3z" fill="#FBFDFD"/>
<path transform="translate(1642,613)" d="m0 0h12l15 3 38 11 4 2-1 10-4 15-2 1-8-2 3 6 2 9v11l-4 13-6 8-5 4-5 2h-13l-10-4-5-6-4-9v-28l3-19-2-1-6 3-5 8-3 7-1 5-1 25-9-1-9-4v-13l5-25 6-16 6-9 6-5z" fill="#FBFDFC"/>
<path transform="translate(337,1086)" d="m0 0h8l4 20v5l-7 2 8 11 4 10 1 4v16l-4 9-6 7-10 4h-11l-10-5-6-9-6-16-5-20-2-3h-4l-4 8v14l3 12 6 15v3l-2 1-16 1-4-9-5-19-2-13v-15l3-12 4-6 6-4 9-3 41-7z" fill="#FBFDFC"/>
<path transform="translate(284,726)" d="m0 0 5 1 3 19v6l-6 3 7 9 5 12 1 4v15l-5 10-8 7-9 3h-9l-7-3-5-4-8-16-7-24-2-7-5 3-3 5-1 9 3 16 7 18v2l-18 2-4-9-4-13-3-15-1-13 2-13 4-9 5-5 10-4z" fill="#FBFDFC"/>
<path transform="translate(1551,980)" d="m0 0 13 1 26 7 23 7 3 2-2 13-2 9-1 1h-10l5 8v23l-4 10-7 8-8 4h-15l-8-4-4-5-4-8-1-7v-13l2-17 1-11-5-1-4 1-2 5-4 8-3 14v20l-9-1-9-4-1-1v-14l3-17 6-18 5-10 9-8z" fill="#FBFDFC"/>
<path transform="translate(1113,1495)" d="m0 0h18l11 4 9 6 6 7 4 13 1 5v15l-9 1h-51l2 8 4 6 7 4 11 2 16-2 12-6 5-2 1 1v20l-5 3-7 3-20 3h-8l-16-3-12-6-8-7-5-8-3-8-1-6v-13l2-11 4-10 9-10 10-6z" fill="#F9FCFC"/>
<path transform="translate(322,974)" d="m0 0h5l4 18v9l-14 3-29 5-10 3-6 5v9l5 13v2l17-2 38-6 5 1 2 9 2 16-12 3-54 9-11 2h-4l-2-8-2-14v-5l7-2 1-2h-2l-7-8-5-11-1-5v-13l3-9 6-7 8-4 16-4 36-6z" fill="#FBFDFD"/>
<path transform="translate(517,1496)" d="m0 0h21l7 4 7 8 3 7 1 67-1 1h-26l-1-52-2-9-4-4-5-1-11 2-6 2-1 62h-25l-1-1v-84l1-1h25l1 8 11-6z" fill="#FCFEFD"/>
<path transform="translate(1233,1495)" d="m0 0 11 1 8 4 6 7 4 12v64h-25l-1-1-1-52-3-9-3-3-6-1-15 3-1 1-1 62h-25l-1-1v-84l1-1h24l1 1v8l15-9z" fill="#FCFEFD"/>
<path transform="translate(1593,761)" d="m0 0 7 1 71 21 1 4-6 20-3 3-6-2 5 14v11l-4 13-6 8-7 5h-20l-25-7-26-8-3-3 2-3 5-21 5 1 41 12 4 1h8l5-6 2-10v-10l-9-4-44-13-4-2 1-5z" fill="#FBFDFC"/>
<path transform="translate(1680,424)" d="m0 0 4 2 20 15 16 13 11 9 14 12 16 12 13 10 2 6-6 24-2 1-14-11-8-8-2-1h-12l-57 7-19 1 2-10 4-16 9-2 43-4 4-1-9-7-14-10-18-13-3-3 1-7z" fill="#FBFDFD"/>
<path transform="translate(229,385)" d="m0 0h5l2 7 2 12v8l-37 6-16 4-4 2-2 6 1 10 5 11h8l34-6 15-3 3 8 3 15v4l-12 3-49 8-15 3h-4l-4-19v-6l7-4-9-11-4-8-2-8v-10l3-10 5-6 14-7 27-5z" fill="#FBFDFD"/>
<path transform="translate(1296,344)" d="m0 0 20 2 10 3 3 3v21l-20-8-6-1h-10l-6 2-3 2 1 5 4 3 24 5 9 4 6 5 4 8 1 10-2 9-7 9-10 6-10 3h-30l-15-4-3-3v-23h3v2l5 2 10 5 11 2h13l6-2v-6l-4-3-9-2-12-2-12-5-7-8-4-9v-9l3-8 8-9 14-7z" fill="#FBFDFD"/>
<path transform="translate(281,1271)" d="m0 0 5 1 4 30v4l46-8 30-5h12l3 21 1 4-8 3-71 13-8 1 4 23 1 11-2 2-16 3-3-7-9-55-5-32v-6z" fill="#FBFDFC"/>
<path transform="translate(285,880)" d="m0 0h10l8 3 5 4 6 9 6 16 2 10v26l-2 6-17 4h-3l1-7 3-11v-20l-3-9-4-4h-5l-2 6-1 26-4 14-4 5-11 5h-10l-10-5-6-7-6-13-2-6-2-15v-13l2-11 1-1 13-2 5-1-1 7-2 10v19l3 8 2 3h6l2-6 1-23 3-14 3-6 6-5z" fill="#FBFDFD"/>
<path transform="translate(816,321)" d="m0 0 26 1 1 4-1 21h24l1 1v18h-25l1 38 2 10 4 1h11l4-2h3v19l-3 2-5 1h-22l-11-4-6-5-3-6-1-4-1-13v-37h-9l-1-1v-17l1-1h9v-25z" fill="#FAFDFC"/>
<path transform="translate(268,648)" d="m0 0h8l2 3 4 19v13l-4 10-5 5-10 4-31 6-10 2 1 8-7 3-10 2-2-5-1-5-15 2h-7l-1-1-2-16-2-5 1-4 20-4 1-1-3-23 1-1 17-2 1 1 2 23 38-7 6-2 1-2v-9l-2-9-1-4z" fill="#FBFDFC"/>
<path transform="translate(1518,1071)" d="m0 0 15 3 7 3-5 5-7 8-4 8-1 4v11l5 10 8 5 9 3h10l8-4 5-7 2-8v-14l-3-10v-3l12 2 11 4 1 7-1 15-5 18-7 12-7 8-8 5-9 3h-15l-15-5-8-6-8-9-4-11-1-5v-16l3-15 4-10 6-10z" fill="#FAFDFC"/>
<path transform="translate(1210,314)" d="m0 0h28v119l-24 1-4-1z" fill="#FDFEFD"/>
<path transform="translate(1492,1463)" d="m0 0 26 1v118l-1 1h-25l-1-3v-116z" fill="#F8FCFC"/>
<path transform="translate(985,347)" d="m0 0h26l1 4-1 8 10-6 6-4 8-2h9l1 1v26l-8-1h-13l-12 3v57l-26 1-1-1z" fill="#FDFEFD"/>
<path transform="translate(1575,700)" d="m0 0 17 4 54 16 37 10 1 1-1 9-5 18-11-3-27-8-55-16-14-4-2-3 4-13 1-10z" fill="#FBFDFD"/>
<path transform="translate(298,831)" d="m0 0h6l3 12 1 13-5 2-97 17h-9l-3-15-1-9 1-2 16-3 65-11z" fill="#FBFDFC"/>
<path transform="translate(1654,522)" d="m0 0 10 2 12 4 1 3-4 17-1 15 17 4 35 10 1 3-7 24-11-3-36-10-23-6-9-4 2-9 5-17 11 3-4-10v-25z" fill="#FBFDFC"/>
<path transform="translate(297,1189)" d="m0 0h5l1 1 3 20 3 11 12-1 39-7 4 1 2 6 2 15v5l-12 3-61 10h-6l-1-1-3-17v-9l9-2-10-13-4-11-1-7 2-1 13-2z" fill="#FBFDFC"/>
<path transform="translate(763,347)" d="m0 0h26l1 1v85l-23 1-4-1z" fill="#FDFEFD"/>
<path transform="translate(1059,347)" d="m0 0h26l1 1v85h-26l-1-1z" fill="#FDFEFD"/>
<path transform="translate(1542,1497)" d="m0 0h25l1 1v85h-26l-1-6v-78z" fill="#F6FBFC"/>
<path transform="translate(422,1497)" d="m0 0h26l1 1v84l-1 1h-25l-1-5z" fill="#FCFCF9"/>
<path transform="translate(684,1497)" d="m0 0h25l1 1v85h-25l-1-1z" fill="#FCFDFC"/>
<path transform="translate(261,604)" d="m0 0h9l1 2 2 15 1 8-20 4-58 10-4-1-2-12-1-14 1-1 58-9z" fill="#FAFDFC"/>
<path transform="translate(985,1145)" d="m0 0 16 6 23 11 19 10 20 11 14 9 2 3-11-2-24-6-26-6-33-8-3-5 2-22z" fill="#249CCD"/>
<path transform="translate(918,363)" d="m0 0 9 1 6 4 4 8 1 3v21l-3 9-4 5-8 3-9-1-4-2-5-10-2-11 1-13 4-10 5-5z"/>
<path transform="translate(1505,1196)" d="m0 0h12l14 4 10 9 3 6-1 8-4 7-5 4-2 1h-12l-12-3-9-5-4-5-2-9 3-10 7-6z"/>
<path transform="translate(214,525)" d="m0 0h19l6 4 4 6 1 3v7l-4 8-7 5-9 3-15 1-9-3-5-6-1-3v-12l4-6 8-5z"/>
<path transform="translate(1583,899)" d="m0 0h10l10 3 10 6 5 8v10l-3 11-2 2-6-1-28-8-7-3-1-9 2-8 5-8z"/>
<path transform="translate(695,365)" d="m0 0h10l6 3 1 1v37l-3 5-9 4-9-1-6-4-4-8-1-5v-11l3-11 5-7z"/>
<path transform="translate(616,1515)" d="m0 0h12l4 1 1 38-1 6-7 4-10 1-7-3-4-4-3-9-1-11 3-12 5-7z"/>
<path transform="translate(1322,1515)" d="m0 0h15l2 1v40l-3 3-9 2-10-1-4-2-4-8v-21l3-7 7-6z"/>
<path transform="translate(997,1534)" d="m0 0 29 1 4 5 1 3v11l-3 5-8 3h-23l-1-27z"/>
<path transform="translate(815,1533)" d="m0 0 4 1 8 8 11 9 9 9-1 3-11 3-9-1-6-3-6-7-2-4v-10z"/>
<path transform="translate(996,1490)" d="m0 0h23l5 5 1 2v9l-5 6-7 2h-16z"/>
<path transform="translate(1058,314)" d="m0 0h29v20l-1 1h-28z" fill="#FDFEFD"/>
<path transform="translate(762,314)" d="m0 0h28l1 1v19l-1 1h-28z" fill="#FDFEFD"/>
<path transform="translate(684,1463)" d="m0 0h12l15 1 1 5-1 16h-27l-1-1v-20z" fill="#F7FBFC"/>
<path transform="translate(1542,1463)" d="m0 0 27 1 1 3-1 18h-27l-1-1v-20z" fill="#FAFDFC"/>
<path transform="translate(421,1464)" d="m0 0h28l1 1v19l-1 1h-26l-1-1-1-10z" fill="#F8FBFA"/>
<path transform="translate(1434,1543)" d="m0 0h6l1 2v14l-1 3-8 4-11 1-6-3-2-2-1-9 4-6z"/>
<path transform="translate(1574,1013)" d="m0 0 11 2 5 3 2 5v7l-4 13-3 2h-8l-5-4-1-3v-12l2-12z"/>
<path transform="translate(169,618)" d="m0 0h7l3 16 1 11-8 3-10 2-2-7-3-22 1-1z" fill="#F8FBFB"/>
<path transform="translate(325,1116)" d="m0 0 6 2 4 8 1 4v11l-6 5h-7l-5-5-4-10-3-12 1-1z"/>
<path transform="translate(1668,646)" d="m0 0 8 1 9 4 1 3v14l-3 7-4 3-8-1-4-3-1-3v-16l1-8z"/>
<path transform="translate(1150,394)" d="m0 0h9l1 5-1 12-5 4-6 2h-8l-7-3-2-5 1-7 5-5 5-2z"/>
<path transform="translate(268,757)" d="m0 0 5 1 5 8 2 5v10l-7 6h-6l-5-5-4-11-3-9v-3z"/>
<path transform="translate(1115,1511)" d="m0 0h7l7 3 6 9 1 5-5 1h-28l-2-2 3-8 5-5z"/>
<path transform="translate(823,1483)" d="m0 0h7l5 4 2 5-1 10-6 8-5-2-6-7-2-4v-8l4-5z"/>
</svg>
